<svg t="1603012639258" class="icon" viewBox="0 0 1099 1024" version="1.1" xmlns="http://www.w3.org/2000/svg" p-id="2522" width="135" height="135"><path d="M31.479966 582.31069l466.500808 208.60197c41.195156 19.378888 59.115048 19.378888 103.674476 0l466.569467-208.567641c23.137946-10.779399 31.376977-61.054654 31.376977-87.934492-30.038134 15.019067-72.554968 36.217408-73.275883 36.33756L549.697859 749.219729 73.310213 530.83391c1.716465 0.96122-42.156376-18.657973-73.275883-36.33756 0 26.313406 6.539731 74.752043 31.376977 87.81434" fill="#0066EB" p-id="2523"></path><path d="M549.766518 967.845853L73.378872 749.219729c1.716465 0.96122-42.156376-18.657973-73.275883-36.33756 0 26.399229 6.865859 74.855031 31.376977 87.934493L497.980774 1009.452961c41.195156 19.378888 59.115048 19.378888 103.674476 0l466.329162-208.567641c23.137946-10.779399 31.376977-61.054654 31.376977-87.934492-30.038134 15.019067-72.314663 36.217408-73.275883 36.33756L549.697859 967.863018" fill="#0066EB" p-id="2524"></path><path d="M1068.05307 260.731006L601.723908 15.722818c-36.577865-21.558798-62.496484-20.357273-103.674475 0L31.479966 260.731006c-35.616645 22.657336-36.577865 83.694825 0 102.987889l466.500808 208.670629c41.195156 19.258735 59.115048 19.258735 103.674476 0l466.569467-208.704958c34.15765-15.980287 35.37634-83.45452-0.240305-102.987889z m-518.372375 251.204627L73.464695 312.327939 549.886671 57.484407l476.507798 254.843532-476.627951 199.624858z" fill="#47D5ED" p-id="2525"></path></svg>